<svg width="292" height="181" viewBox="0 0 292 181" fill="none" xmlns="http://www.w3.org/2000/svg">
<g filter="url(#filter0_i_2_68)">
<path d="M34.5 180.5H0V16.5L34.5 61V180.5Z" fill="url(#paint0_linear_2_68)"/>
<path d="M34.5 180.5H0V16.5L34.5 61V180.5Z" stroke="#7B7E80"/>
</g>
<g filter="url(#filter1_i_2_68)">
<path d="M36 2.5H1.5L143 180H182.5C182.5 180 120.45 98.2845 77.5 46.5C63.0718 29.1041 36 2.5 36 2.5Z" fill="url(#paint1_linear_2_68)"/>
<path d="M36 2.5H1.5L143 180H182.5C182.5 180 120.45 98.2845 77.5 46.5C63.0718 29.1041 36 2.5 36 2.5Z" stroke="#7B7E80"/>
</g>
<g filter="url(#filter2_i_2_68)">
<path d="M288.5 0L265 35.5L160.5 36C137 36 144.5 69.5 160.5 69.5H239.5C318.5 71 299.5 179 240.5 179H194L168 145.5H232.5C269 145.5 263.5 103.5 232.5 103.5H156C91 100 92.5 0 158 0H288.5Z" fill="url(#paint2_linear_2_68)"/>
<path d="M288.5 0L265 35.5L160.5 36C137 36 144.5 69.5 160.5 69.5H239.5C318.5 71 299.5 179 240.5 179H194L168 145.5H232.5C269 145.5 263.5 103.5 232.5 103.5H156C91 100 92.5 0 158 0H288.5Z" stroke="#7B7E80"/>
</g>
<defs>
<filter id="filter0_i_2_68" x="0" y="16.5" width="40.5" height="171" filterUnits="userSpaceOnUse" color-interpolation-filters="sRGB">
<feFlood flood-opacity="0" result="BackgroundImageFix"/>
<feBlend mode="normal" in="SourceGraphic" in2="BackgroundImageFix" result="shape"/>
<feColorMatrix in="SourceAlpha" type="matrix" values="0 0 0 0 0 0 0 0 0 0 0 0 0 0 0 0 0 0 127 0" result="hardAlpha"/>
<feOffset dx="6" dy="11"/>
<feGaussianBlur stdDeviation="3.5"/>
<feComposite in2="hardAlpha" operator="arithmetic" k2="-1" k3="1"/>
<feColorMatrix type="matrix" values="0 0 0 0 0 0 0 0 0 0 0 0 0 0 0 0 0 0 0.25 0"/>
<feBlend mode="normal" in2="shape" result="effect1_innerShadow_2_68"/>
</filter>
<filter id="filter1_i_2_68" x="1.5" y="2.5" width="187" height="184.5" filterUnits="userSpaceOnUse" color-interpolation-filters="sRGB">
<feFlood flood-opacity="0" result="BackgroundImageFix"/>
<feBlend mode="normal" in="SourceGraphic" in2="BackgroundImageFix" result="shape"/>
<feColorMatrix in="SourceAlpha" type="matrix" values="0 0 0 0 0 0 0 0 0 0 0 0 0 0 0 0 0 0 127 0" result="hardAlpha"/>
<feOffset dx="6" dy="11"/>
<feGaussianBlur stdDeviation="3.5"/>
<feComposite in2="hardAlpha" operator="arithmetic" k2="-1" k3="1"/>
<feColorMatrix type="matrix" values="0 0 0 0 0 0 0 0 0 0 0 0 0 0 0 0 0 0 0.25 0"/>
<feBlend mode="normal" in2="shape" result="effect1_innerShadow_2_68"/>
</filter>
<filter id="filter2_i_2_68" x="108.054" y="0" width="189.914" height="186" filterUnits="userSpaceOnUse" color-interpolation-filters="sRGB">
<feFlood flood-opacity="0" result="BackgroundImageFix"/>
<feBlend mode="normal" in="SourceGraphic" in2="BackgroundImageFix" result="shape"/>
<feColorMatrix in="SourceAlpha" type="matrix" values="0 0 0 0 0 0 0 0 0 0 0 0 0 0 0 0 0 0 127 0" result="hardAlpha"/>
<feOffset dx="6" dy="11"/>
<feGaussianBlur stdDeviation="3.5"/>
<feComposite in2="hardAlpha" operator="arithmetic" k2="-1" k3="1"/>
<feColorMatrix type="matrix" values="0 0 0 0 0 0 0 0 0 0 0 0 0 0 0 0 0 0 0.25 0"/>
<feBlend mode="normal" in2="shape" result="effect1_innerShadow_2_68"/>
</filter>
<linearGradient id="paint0_linear_2_68" x1="-9" y1="180.5" x2="114.5" y2="180.5" gradientUnits="userSpaceOnUse">
<stop stop-color="#7B7E80"/>
<stop offset="0.5" stop-color="#D7D8DA"/>
<stop offset="1" stop-color="#7B7E80"/>
</linearGradient>
<linearGradient id="paint1_linear_2_68" x1="39" y1="180.5" x2="143.5" y2="180.5" gradientUnits="userSpaceOnUse">
<stop stop-color="#7B7E80"/>
<stop offset="0.502803" stop-color="#D7D8DA"/>
<stop offset="1" stop-color="#7B7E80"/>
</linearGradient>
<linearGradient id="paint2_linear_2_68" x1="121.5" y1="89.5" x2="297.5" y2="89.5" gradientUnits="userSpaceOnUse">
<stop stop-color="#7B7E80"/>
<stop offset="0.5" stop-color="#D7D8DA"/>
<stop offset="1" stop-color="#7B7E80"/>
</linearGradient>
</defs>
</svg>
